<?xml version="1.0" encoding="utf-8"?>
<!-- Generator: Adobe Illustrator 18.0.0, SVG Export Plug-In . SVG Version: 6.00 Build 0)  -->
<svg version="1.2" baseProfile="tiny" id="Warstwa_1"
	 xmlns="http://www.w3.org/2000/svg" xmlns:xlink="http://www.w3.org/1999/xlink" x="0px" y="0px" viewBox="0 0 75 75"
	 xml:space="preserve">
<g>
	<g>
		<path d="M75,75H0V0h75V75z M1.9,73.1h71.1V1.9H1.9V73.1z"/>
	</g>
	<g>
		<path d="M36.3,12.4c0.5,0.3,1,0.7,1.5,1.2c0.5,0.6,1.1,1.3,1.6,2.1c0.5,0.8,0.9,1.7,1.3,2.8c0.3,1.1,0.5,2.3,0.5,3.7
			c0,2.6-0.6,4.7-1.7,6.2c-0.5,0.8-1.1,1.5-1.7,2.1c-0.7,0.6-1.4,1.3-2.1,2c-0.4,0.4-0.8,1-1.2,1.5c-0.4,0.6-0.7,1.3-0.7,2.1
			c0,0.8,0.2,1.4,0.7,1.9c0.4,0.5,0.7,0.9,1.1,1.2l2.5,2c1.5,1.3,2.9,2.6,4,4.2c1.1,1.5,1.7,3.6,1.7,6c0,3.5-1.6,6.6-4.7,9.4
			c-3.2,2.8-7.9,4.3-14,4.4c-5.1,0-8.9-1.1-11.4-3.3c-2.5-2-3.8-4.4-3.8-7.1c0-1.3,0.4-2.8,1.2-4.5c0.8-1.7,2.2-3.1,4.3-4.4
			c2.4-1.3,4.8-2.2,7.4-2.7c2.6-0.4,4.7-0.6,6.4-0.6c-0.5-0.7-1-1.4-1.4-2.2c-0.5-0.8-0.7-1.7-0.7-2.7c0-0.6,0.1-1.2,0.3-1.6
			c0.2-0.5,0.3-0.9,0.4-1.2c-0.8,0.1-1.6,0.1-2.3,0.1c-3.9,0-6.8-1.3-8.9-3.7c-2.1-2.2-3.2-4.8-3.2-7.8c0-3.6,1.5-6.8,4.5-9.7
			c2.1-1.7,4.2-2.8,6.4-3.3c2.2-0.4,4.3-0.7,6.2-0.7h14.6l-4.5,2.6H36.3z M39.1,54.3c0-1.8-0.6-3.5-1.8-4.8c-1.3-1.3-3.3-2.9-6-4.8
			c-0.5,0-1-0.1-1.6-0.1c-0.4,0-1.3,0-2.8,0.1c-1.5,0.2-3,0.6-4.6,1c-0.4,0.1-0.9,0.4-1.6,0.6c-0.7,0.3-1.4,0.7-2.1,1.3
			c-0.7,0.6-1.2,1.3-1.7,2.2c-0.5,0.9-0.8,2-0.8,3.3c0,2.6,1.2,4.7,3.5,6.3c2.2,1.7,5.2,2.5,9,2.6c3.4,0,6-0.8,7.9-2.3
			C38.3,58.4,39.1,56.6,39.1,54.3z M29,33c1.9-0.1,3.5-0.8,4.8-2.1c0.6-0.9,1-1.9,1.2-2.8c0.1-1,0.2-1.8,0.2-2.5
			c0-2.9-0.7-5.8-2.2-8.7c-0.7-1.4-1.6-2.5-2.7-3.4c-1.1-0.8-2.5-1.3-4-1.3c-2,0-3.6,0.8-4.9,2.4c-1.1,1.6-1.6,3.4-1.6,5.4
			c0,2.6,0.8,5.4,2.3,8.2c0.7,1.3,1.7,2.5,2.9,3.4C26.1,32.5,27.5,33,29,33z"/>
	</g>
	<g>
		<polygon points="65,17.7 57.4,17.7 57.4,10.1 53.7,10.1 53.7,17.7 46.1,17.7 46.1,21.4 53.7,21.4 53.7,29.1 57.4,29.1 57.4,21.4 
			65,21.4 		"/>
	</g>
</g>
</svg>
