<?xml version="1.0" encoding="utf-8"?>
<!-- Generator: Adobe Illustrator 18.0.0, SVG Export Plug-In . SVG Version: 6.00 Build 0)  -->
<svg version="1.2" baseProfile="tiny" id="Warstwa_1"
	 xmlns="http://www.w3.org/2000/svg" xmlns:xlink="http://www.w3.org/1999/xlink" x="0px" y="0px" viewBox="0 0 26 26"
	 xml:space="preserve">
<g>
	<path d="M12.5,10.7l0.5,0.5l0.5-0.5c1.7-1.5,4.4-4.1,4.5-4.1c0.7-0.7,1.2-1.7,1.2-2.7c0-1-0.4-2-1.2-2.7C17.3,0.4,16.3,0,15.3,0
		c-0.8,0-1.6,0.2-2.2,0.7C12.4,0.2,11.6,0,10.8,0C9.8,0,8.8,0.4,8,1.1C7.3,1.9,6.9,2.8,6.9,3.9c0,1,0.4,2,1.2,2.7
		C8.1,6.6,10.8,9.2,12.5,10.7z M9.1,2.2c0.4-0.4,1-0.7,1.7-0.7c0.6,0,1.2,0.2,1.7,0.7L13,2.8l0.6-0.5c0.4-0.4,1-0.7,1.7-0.7
		c0.6,0,1.2,0.2,1.7,0.7c0.4,0.4,0.7,1,0.7,1.6c0,0.6-0.2,1.2-0.7,1.6c-0.1,0.1-2.5,2.3-3.9,3.6c-1.4-1.3-3.8-3.5-3.9-3.6
		c-0.4-0.4-0.7-1-0.7-1.6C8.4,3.2,8.7,2.7,9.1,2.2z M25.1,17.3l-3.8-3.5c-0.9-0.8-2-1.3-3.3-1.3h-7.5c-0.8,0-1.4,0.6-1.4,1.4
		c0,0.8,0.6,1.4,1.4,1.4h5.4c0.5,0,0.9,0.4,0.9,0.9c0,0.5-0.4,0.9-0.9,0.9H6.7c-0.2,0-0.4-0.1-0.6-0.2l-3.9-3
		c-0.6-0.5-1.5-0.4-2,0.2c-0.5,0.6-0.4,1.5,0.2,2l6,4.6C6.8,20.9,7.1,21,7.4,21h10.7c0.2,0,0.5,0.1,0.6,0.2l4.6,4.4
		c0.4,0.4,1.1,0.5,1.7,0.3c0.6-0.2,0.9-0.8,0.9-1.4v-5C26,18.7,25.7,17.9,25.1,17.3z"/>
</g>
</svg>
