<?xml version="1.0" encoding="utf-8"?>
<!-- Generator: Adobe Illustrator 18.0.0, SVG Export Plug-In . SVG Version: 6.00 Build 0)  -->
<svg version="1.2" baseProfile="tiny" id="Warstwa_1"
	 xmlns="http://www.w3.org/2000/svg" xmlns:xlink="http://www.w3.org/1999/xlink" x="0px" y="0px" viewBox="0 0 75 75"
	 xml:space="preserve">
<g>
	<g>
		<path d="M75,75H0V0h75V75z M1.9,73.1h71.1V1.9H1.9V73.1z"/>
	</g>
	<g>
		<g>
			<path fill-rule="evenodd" d="M54.7,33.5h-3.8c0.3,1.1,0.4,2.2,0.4,3.4c0,7.5-6.1,13.6-13.6,13.6c-7.5,0-13.6-6.1-13.6-13.6
				c0-1.2,0.2-2.3,0.4-3.4h-3.8v18.7c0,0.9,0.8,1.7,1.7,1.7H53c0.9,0,1.7-0.8,1.7-1.7V33.5z M54.7,21.6c0-0.9-0.8-1.7-1.7-1.7h-5.1
				c-0.9,0-1.7,0.8-1.7,1.7v5.1c0,0.9,0.8,1.7,1.7,1.7H53c0.9,0,1.7-0.8,1.7-1.7V21.6z M37.7,28.4c-4.7,0-8.5,3.8-8.5,8.5
				c0,4.7,3.8,8.5,8.5,8.5c4.7,0,8.5-3.8,8.5-8.5C46.2,32.2,42.4,28.4,37.7,28.4 M54.7,59h-34c-2.8,0-5.1-2.3-5.1-5.1V19.9
				c0-2.8,2.3-5.1,5.1-5.1h34c2.8,0,5.1,2.3,5.1,5.1v33.9C59.8,56.7,57.5,59,54.7,59"/>
		</g>
	</g>
</g>
</svg>
