<?xml version="1.0" encoding="utf-8"?>
<!-- Generator: Adobe Illustrator 18.0.0, SVG Export Plug-In . SVG Version: 6.00 Build 0)  -->
<svg version="1.2" baseProfile="tiny" id="Warstwa_1"
	 xmlns="http://www.w3.org/2000/svg" xmlns:xlink="http://www.w3.org/1999/xlink" x="0px" y="0px" viewBox="0 0 75 75"
	 xml:space="preserve">
<g>
	<g>
		<path d="M13.7,29.1H24v33.1H13.7V29.1z M18.9,12.6c3.3,0,6,2.7,6,6c0,3.3-2.7,6-6,6c-3.3,0-6-2.7-6-6
			C12.9,15.3,15.6,12.6,18.9,12.6"/>
	</g>
	<g>
		<path d="M30.5,29.1h9.9v4.5h0.1c1.4-2.6,4.7-5.3,9.7-5.3c10.4,0,12.3,6.9,12.3,15.8v18.2H52.3V46.1c0-3.8-0.1-8.8-5.4-8.8
			c-5.4,0-6.2,4.2-6.2,8.5v16.4H30.5V29.1z"/>
	</g>
	<g>
		<path d="M75,75H0V0h75V75z M1.9,73.1h71.1V1.9H1.9V73.1z"/>
	</g>
</g>
</svg>
