<?xml version="1.0" encoding="utf-8"?>
<!-- Generator: Adobe Illustrator 18.0.0, SVG Export Plug-In . SVG Version: 6.00 Build 0)  -->
<svg version="1.2" baseProfile="tiny" id="Warstwa_1"
	 xmlns="http://www.w3.org/2000/svg" xmlns:xlink="http://www.w3.org/1999/xlink" x="0px" y="0px" viewBox="0 0 23 31"
	 xml:space="preserve">
<g>
	<path d="M6.5,4.6h5.3c0.7,0,1.2-0.6,1.2-1.3v0c0-0.7-0.5-1.3-1.2-1.3h-0.6c-0.3,0-0.6-0.3-0.6-0.6v0C10.6,0.7,10,0,9.2,0h0
		C8.4,0,7.8,0.7,7.8,1.5v0c0,0.3-0.3,0.6-0.6,0.6H6.5c-0.7,0-1.2,0.6-1.2,1.3v0C5.3,4.1,5.8,4.6,6.5,4.6z M9.2,0.8
		c0.3,0,0.6,0.3,0.6,0.6c0,0.3-0.3,0.6-0.6,0.6c-0.3,0-0.6-0.3-0.6-0.6C8.6,1.1,8.8,0.8,9.2,0.8z M1.7,24.8V6.3h14.9v10.1
		c0,0,0.1,0,0.1,0c0.5,0,1.1,0.1,1.6,0.2v-12c0,0,0,0,0,0V3h-1.2c0,0,0,0,0,0h-3.3c0,0.1,0,0.3,0,0.4c0,1-0.7,1.9-1.6,2.1
		c0,0,0,0,0,0c0,0,0,0,0,0c-0.1,0-0.2,0-0.4,0H6.5c-0.1,0-0.3,0-0.4,0c0,0,0,0,0,0c0,0,0,0,0,0c-0.9-0.2-1.6-1-1.6-2.1
		c0-0.1,0-0.3,0-0.4H1.2c0,0,0,0,0,0H0v1.6c0,0,0,0,0,0.1v20.3c0,0,0,0,0,0.1v1.6h1.6c0,0,0,0,0.1,0h7.6C9,26,9,25.4,8.9,24.8H1.7z
		 M14.4,9.4H4v1.2h10.4V9.4z M14.4,13.1H4v1.2h10.4V13.1z M4,17.9h8.3c0.6-0.5,1.3-0.8,2.1-1.1v-0.1H4V17.9z M4,21.6h5.5
		c0.2-0.4,0.3-0.8,0.6-1.2H4V21.6z M16.8,18.1c-3.4,0-6.2,2.9-6.2,6.5c0,3.6,2.8,6.5,6.2,6.5c3.4,0,6.2-2.9,6.2-6.5
		C23,21,20.2,18.1,16.8,18.1z M16.8,29.4c-2.6,0-4.7-2.2-4.7-4.9c0-2.7,2.1-4.9,4.7-4.9s4.7,2.2,4.7,4.9
		C21.5,27.2,19.4,29.4,16.8,29.4z M19.2,21.8l-2.9,3.5l-1.9-1.5l-1,1.2l3,2.5l3.9-4.6L19.2,21.8z"/>
</g>
</svg>
