<?xml version="1.0" encoding="utf-8"?>
<!-- Generator: Adobe Illustrator 18.0.0, SVG Export Plug-In . SVG Version: 6.00 Build 0)  -->
<svg version="1.2" baseProfile="tiny" id="Warstwa_1"
	 xmlns="http://www.w3.org/2000/svg" xmlns:xlink="http://www.w3.org/1999/xlink" x="0px" y="0px" viewBox="0 0 23 22"
	 xml:space="preserve">
<g>
	<path d="M21,0H6.6c-1.1,0-2,1-2,2.2v2.3H6V2.2c0-0.4,0.3-0.7,0.7-0.7H21c0.4,0,0.7,0.3,0.7,0.7v9.5c0,0.4-0.3,0.7-0.7,0.7H19v1.5
		H21c1.1,0,2-1,2-2.2V2.2C23,1,22.1,0,21,0z M0,19.3h11.1l5.2,2.7l0-2.7h1.9V5.4H0V19.3z M12.5,9.9c0.5,0,0.8,0.4,0.8,0.9
		c0,0.5-0.4,0.9-0.8,0.9c-0.5,0-0.8-0.4-0.8-0.9C11.7,10.3,12.1,9.9,12.5,9.9z M12.5,13.1c0.5,0,0.8,0.4,0.8,0.9
		c0,0.5-0.4,0.9-0.8,0.9c-0.5,0-0.8-0.4-0.8-0.9C11.7,13.5,12.1,13.1,12.5,13.1z M10.1,9.9c0.5,0,0.8,0.4,0.8,0.9
		c0,0.5-0.4,0.9-0.8,0.9c-0.5,0-0.8-0.4-0.8-0.9C9.3,10.3,9.7,9.9,10.1,9.9z M10.1,13.1c0.5,0,0.8,0.4,0.8,0.9
		c0,0.5-0.4,0.9-0.8,0.9c-0.5,0-0.8-0.4-0.8-0.9C9.3,13.5,9.7,13.1,10.1,13.1z M7.7,9.9c0.5,0,0.8,0.4,0.8,0.9
		c0,0.5-0.4,0.9-0.8,0.9c-0.5,0-0.8-0.4-0.8-0.9C6.9,10.3,7.3,9.9,7.7,9.9z M7.7,13.1c0.5,0,0.8,0.4,0.8,0.9c0,0.5-0.4,0.9-0.8,0.9
		c-0.5,0-0.8-0.4-0.8-0.9C6.9,13.5,7.3,13.1,7.7,13.1z M5.3,9.9c0.5,0,0.8,0.4,0.8,0.9c0,0.5-0.4,0.9-0.8,0.9
		c-0.5,0-0.8-0.4-0.8-0.9C4.5,10.3,4.9,9.9,5.3,9.9z M5.3,13.1c0.5,0,0.8,0.4,0.8,0.9c0,0.5-0.4,0.9-0.8,0.9c-0.5,0-0.8-0.4-0.8-0.9
		C4.5,13.5,4.9,13.1,5.3,13.1z"/>
</g>
</svg>
