<?xml version="1.0" encoding="utf-8"?>
<!-- Generator: Adobe Illustrator 18.0.0, SVG Export Plug-In . SVG Version: 6.00 Build 0)  -->
<svg version="1.2" baseProfile="tiny" id="Warstwa_1"
	 xmlns="http://www.w3.org/2000/svg" xmlns:xlink="http://www.w3.org/1999/xlink" x="0px" y="0px" viewBox="0 0 75 75"
	 xml:space="preserve">
<g>
	<g>
		<path d="M75,75H0V0h75V75z M1.9,73.1h71.1V1.9H1.9V73.1z"/>
	</g>
	<g>
		<path d="M61.9,22.4c-1.8,0.8-3.7,1.3-5.7,1.6c2.1-1.2,3.6-3.2,4.4-5.5c-1.9,1.1-4.1,2-6.3,2.4c-1.8-1.9-4.4-3.2-7.3-3.2
			c-5.5,0-10,4.5-10,10c0,0.8,0.1,1.5,0.3,2.3c-8.3-0.4-15.7-4.4-20.6-10.4c-0.9,1.5-1.4,3.2-1.4,5c0,3.5,1.8,6.5,4.4,8.3
			c-1.6-0.1-3.2-0.5-4.5-1.3v0.1c0,4.8,3.4,8.9,8,9.8c-0.8,0.2-1.7,0.4-2.6,0.4c-0.6,0-1.3-0.1-1.9-0.2c1.3,4,5,6.9,9.3,6.9
			c-3.4,2.7-7.7,4.3-12.4,4.3c-0.8,0-1.6,0-2.4-0.1c4.4,2.8,9.7,4.5,15.3,4.5c18.4,0,28.4-15.2,28.4-28.4c0-0.4,0-0.9,0-1.3
			C58.8,26.2,60.5,24.4,61.9,22.4z"/>
	</g>
</g>
</svg>
