<?xml version="1.0" encoding="utf-8"?>
<!-- Generator: Adobe Illustrator 18.0.0, SVG Export Plug-In . SVG Version: 6.00 Build 0)  -->
<svg version="1.2" baseProfile="tiny" id="Warstwa_1"
	 xmlns="http://www.w3.org/2000/svg" xmlns:xlink="http://www.w3.org/1999/xlink" x="0px" y="0px" viewBox="0 0 75 75"
	 xml:space="preserve">
<g>
	<g>
		<path d="M75,75H0V0h75V75z M1.9,73.1h71.1V1.9H1.9V73.1z"/>
	</g>
	<g>
		<path d="M32.4,8.1h-3.3l-2.2,8.6l-2.3-8.6H21c0.7,2,1.4,4.1,2.1,6.1c1.1,3.1,1.7,5.4,2,7v8.9h3.3v-8.9L32.4,8.1z M41.2,24.8V19
			c0-1.7-0.3-3-0.9-3.9c-0.8-1.1-2-1.7-3.5-1.7c-1.5,0-2.6,0.6-3.5,1.7c-0.6,0.8-0.9,2.1-0.9,3.9v5.7c0,1.7,0.3,3,0.9,3.9
			c0.8,1.1,2,1.7,3.5,1.7c1.5,0,2.6-0.6,3.5-1.7C40.9,27.8,41.2,26.5,41.2,24.8z M38.2,25.3c0,1.5-0.5,2.3-1.4,2.3
			c-1,0-1.4-0.8-1.4-2.3v-6.9c0-1.5,0.5-2.3,1.4-2.3c1,0,1.4,0.8,1.4,2.3V25.3z M52.2,30.1V13.7h-3v12.5c-0.7,0.9-1.3,1.4-1.9,1.4
			c-0.4,0-0.6-0.2-0.7-0.7c0-0.1,0-0.5,0-1.2V13.7h-3v12.9c0,1.2,0.1,1.9,0.3,2.4c0.3,0.8,1,1.2,1.9,1.2c1.1,0,2.2-0.7,3.4-2v1.8
			H52.2z"/>
	</g>
	<g>
		<g>
			<path d="M42.9,46.7c-0.5,0-1,0.2-1.5,0.7v9.9c0.5,0.5,1,0.7,1.5,0.7c0.8,0,1.3-0.7,1.3-2.2v-6.9C44.2,47.5,43.7,46.7,42.9,46.7z"
				/>
		</g>
		<g>
			<path d="M53.8,46.7c-1,0-1.5,0.8-1.5,2.2v1.5h2.9V49C55.2,47.5,54.7,46.7,53.8,46.7z"/>
		</g>
		<g>
			<path d="M61,38.5c-0.6-2.6-2.7-4.5-5.3-4.8C49.7,33,43.6,33,37.5,33c-6.1,0-12.2,0-18.2,0.7c-2.5,0.3-4.7,2.2-5.3,4.8
				c-0.8,3.7-0.9,7.7-0.9,11.5c0,3.8,0,7.8,0.8,11.5c0.6,2.6,2.7,4.5,5.3,4.8c6,0.7,12.1,0.7,18.2,0.7c6.1,0,12.2,0,18.2-0.7
				c2.5-0.3,4.7-2.2,5.3-4.8c0.8-3.7,0.9-7.7,0.9-11.5C61.8,46.2,61.8,42.2,61,38.5z M27.1,41.8h-3.5v18.7h-3.3V41.8h-3.5v-3.1h10.2
				V41.8z M35.9,60.5H33v-1.8c-1.2,1.3-2.3,2-3.4,2c-0.9,0-1.6-0.4-1.9-1.2c-0.2-0.5-0.3-1.3-0.3-2.4V44.3h2.9v11.9c0,0.7,0,1,0,1.1
				c0.1,0.5,0.3,0.7,0.7,0.7c0.6,0,1.2-0.5,1.9-1.4V44.3h2.9V60.5z M47.1,55.6c0,1.5-0.1,2.6-0.3,3.3c-0.4,1.2-1.2,1.8-2.3,1.8
				c-1,0-2.1-0.6-3-1.8v1.6h-2.9V38.7h2.9v7.1c0.9-1.2,2-1.8,3-1.8c1.2,0,2,0.6,2.3,1.8c0.2,0.7,0.3,1.7,0.3,3.3V55.6z M58.2,52.9
				h-5.9v2.9c0,1.5,0.5,2.2,1.5,2.2c0.7,0,1.1-0.4,1.3-1.2c0-0.2,0.1-0.8,0.1-2h3v0.4c0,0.9,0,1.6-0.1,1.9c-0.1,0.6-0.3,1.2-0.7,1.8
				c-0.8,1.2-2,1.8-3.6,1.8c-1.5,0-2.7-0.6-3.6-1.7c-0.6-0.8-0.9-2.1-0.9-3.8v-5.7c0-1.7,0.3-3,0.9-3.8c0.8-1.1,2-1.7,3.5-1.7
				c1.5,0,2.6,0.6,3.5,1.7c0.6,0.8,0.9,2.1,0.9,3.8V52.9z"/>
		</g>
	</g>
</g>
</svg>
