<?xml version="1.0" encoding="utf-8"?>
<!-- Generator: Adobe Illustrator 18.0.0, SVG Export Plug-In . SVG Version: 6.00 Build 0)  -->
<svg version="1.2" baseProfile="tiny" id="Warstwa_1"
	 xmlns="http://www.w3.org/2000/svg" xmlns:xlink="http://www.w3.org/1999/xlink" x="0px" y="0px" viewBox="0 0 202 31"
	 xml:space="preserve">
<g>
	<path fill="#4B345C" d="M176.2,4.8c0-0.5,0-1,0.2-1.5c0.1-0.4,0.4-0.8,0.7-1.1c0.3-0.3,0.7-0.5,1.1-0.7c0.4-0.2,0.9-0.2,1.4-0.2
		c0.5,0,0.9,0.1,1.3,0.2c0.4,0.1,0.7,0.3,1,0.5c0.3,0.2,0.5,0.5,0.7,0.8c0.2,0.3,0.2,0.7,0.2,1.1c0,0.5-0.1,0.9-0.3,1.3
		c-0.2,0.3-0.5,0.7-0.8,0.9c-0.3,0.3-0.7,0.5-1.1,0.7c-0.4,0.2-0.8,0.4-1.2,0.7v0h3.6v1.9h-6.8c0-0.4,0-0.7,0.1-1.1
		c0.1-0.3,0.3-0.6,0.4-0.9c0.2-0.2,0.4-0.4,0.6-0.6c0.2-0.2,0.4-0.4,0.7-0.6c0.2-0.2,0.5-0.3,0.8-0.5c0.3-0.2,0.5-0.3,0.8-0.5
		c0.1-0.1,0.2-0.1,0.3-0.2c0.1-0.1,0.2-0.2,0.4-0.3c0.1-0.1,0.2-0.2,0.3-0.3c0.1-0.1,0.1-0.2,0.1-0.4c0-0.4-0.1-0.6-0.3-0.8
		c-0.2-0.1-0.4-0.2-0.7-0.2c-0.5,0-0.8,0.2-0.9,0.5c-0.2,0.3-0.3,0.7-0.2,1.2H176.2z"/>
	<path fill="#4B345C" d="M183.1,5.5c0-0.8,0.1-1.4,0.3-1.9c0.2-0.5,0.5-0.9,0.8-1.2c0.3-0.3,0.7-0.5,1.1-0.7
		c0.4-0.1,0.8-0.2,1.1-0.2c0.4,0,0.7,0.1,1.1,0.2c0.4,0.1,0.8,0.4,1.1,0.7c0.3,0.3,0.6,0.7,0.8,1.2c0.2,0.5,0.3,1.2,0.3,1.9
		c0,0.8-0.1,1.4-0.3,1.9c-0.2,0.5-0.5,0.9-0.8,1.2c-0.3,0.3-0.7,0.5-1.1,0.7c-0.4,0.1-0.8,0.2-1.1,0.2c-0.4,0-0.7-0.1-1.1-0.2
		c-0.4-0.1-0.8-0.4-1.1-0.7c-0.3-0.3-0.6-0.7-0.8-1.2C183.2,6.9,183.1,6.2,183.1,5.5z M185.2,5.5c0,0.2,0,0.4,0,0.7
		c0,0.3,0.1,0.5,0.1,0.8c0.1,0.2,0.2,0.4,0.4,0.6c0.2,0.2,0.4,0.2,0.7,0.2c0.3,0,0.5-0.1,0.7-0.2c0.2-0.2,0.3-0.4,0.4-0.6
		c0.1-0.2,0.1-0.5,0.1-0.8c0-0.3,0-0.5,0-0.7c0-0.2,0-0.4,0-0.7c0-0.3-0.1-0.5-0.1-0.8c-0.1-0.2-0.2-0.4-0.4-0.6
		c-0.2-0.2-0.4-0.2-0.7-0.2c-0.3,0-0.5,0.1-0.7,0.2c-0.2,0.2-0.3,0.4-0.4,0.6c-0.1,0.2-0.1,0.5-0.1,0.8C185.3,5,185.2,5.3,185.2,5.5
		z"/>
	<path fill="#4B345C" d="M192.1,4.9h-1.8V3.2c0.3,0,0.6,0,0.8-0.1c0.3-0.1,0.5-0.2,0.7-0.3c0.2-0.1,0.4-0.3,0.5-0.5
		c0.1-0.2,0.2-0.5,0.2-0.8h1.9v7.9h-2.4V4.9z"/>
	<path fill="#4B345C" d="M199.8,3.6c-0.1-0.2-0.2-0.3-0.3-0.4c-0.1-0.1-0.3-0.1-0.6-0.1c-0.2,0-0.4,0-0.6,0.1
		c-0.2,0.1-0.3,0.2-0.4,0.4c-0.1,0.2-0.2,0.3-0.3,0.5c-0.1,0.2-0.1,0.4-0.1,0.6c0.3-0.2,0.5-0.4,0.8-0.5c0.3-0.1,0.6-0.1,1-0.1
		c0.4,0,0.7,0.1,1.1,0.2c0.3,0.1,0.6,0.3,0.8,0.5c0.2,0.2,0.4,0.5,0.5,0.8c0.1,0.3,0.2,0.7,0.2,1c0,0.5-0.1,0.9-0.2,1.3
		c-0.2,0.4-0.4,0.7-0.7,0.9c-0.3,0.2-0.6,0.4-1,0.6c-0.4,0.1-0.8,0.2-1.3,0.2c-0.6,0-1.1-0.1-1.5-0.3c-0.4-0.2-0.8-0.5-1-0.8
		c-0.3-0.3-0.5-0.8-0.6-1.2c-0.1-0.5-0.2-0.9-0.2-1.4c0-0.6,0.1-1.2,0.2-1.7c0.1-0.5,0.4-1,0.7-1.4c0.3-0.4,0.7-0.7,1.1-0.9
		c0.4-0.2,1-0.3,1.6-0.3c0.9,0,1.5,0.2,2,0.5c0.5,0.3,0.8,0.9,0.9,1.7H199.8z M198.8,5.6c-0.3,0-0.6,0.1-0.8,0.3
		c-0.2,0.2-0.3,0.5-0.3,0.7c0,0.3,0.1,0.6,0.3,0.8c0.2,0.2,0.5,0.3,0.8,0.3c0.3,0,0.6-0.1,0.8-0.3c0.2-0.2,0.3-0.5,0.3-0.8
		c0-0.3-0.1-0.5-0.3-0.7C199.4,5.7,199.1,5.6,198.8,5.6z"/>
	<g>
		<path fill="#ED1651" d="M141.4,25.7h-4.9v-1.8h-0.1c-1,1.5-2.5,2.3-4.3,2.3c-1.2,0-2.3-0.2-3.2-0.7c-0.9-0.5-1.6-1.1-2.2-1.9
			c-0.6-0.8-1-1.7-1.2-2.8c-0.3-1-0.4-2.1-0.4-3.2c0-1,0.1-2,0.4-3c0.3-0.9,0.7-1.8,1.2-2.5c0.6-0.7,1.2-1.3,2.1-1.8
			c0.8-0.4,1.8-0.7,2.9-0.7c1.9,0,3.4,0.7,4.4,2.1h0.1V4.1h5.1V25.7z M133.4,13.5c-0.6,0-1.1,0.1-1.5,0.4c-0.4,0.3-0.7,0.6-1,1
			c-0.2,0.4-0.4,0.9-0.5,1.3c-0.1,0.5-0.2,1-0.2,1.5c0,0.5,0.1,1.1,0.2,1.6c0.1,0.5,0.3,1,0.5,1.5c0.2,0.4,0.6,0.8,1,1.1
			c0.4,0.3,0.9,0.4,1.5,0.4c0.6,0,1.1-0.1,1.5-0.4s0.7-0.6,0.9-1c0.2-0.4,0.4-0.9,0.5-1.4c0.1-0.5,0.1-1,0.1-1.5
			c0-0.6-0.1-1.1-0.2-1.6c-0.1-0.5-0.3-1-0.5-1.4c-0.2-0.4-0.6-0.7-0.9-1C134.5,13.6,134,13.5,133.4,13.5z"/>
		<path fill="#ED1651" d="M143.9,14.9c0-1,0.3-1.9,0.7-2.6c0.4-0.7,1-1.2,1.7-1.6c0.7-0.4,1.5-0.7,2.3-0.8c0.8-0.2,1.7-0.2,2.6-0.2
			c0.9,0,1.8,0.1,2.7,0.2c0.9,0.1,1.6,0.4,2.3,0.8c0.7,0.4,1.2,0.9,1.6,1.6c0.4,0.7,0.6,1.6,0.6,2.7v6.9c0,0.7,0,1.3,0.1,2
			c0.1,0.7,0.2,1.4,0.5,2H154c-0.1-0.2-0.2-0.5-0.2-0.7c0-0.2-0.1-0.5-0.1-0.8c-0.7,0.7-1.4,1.2-2.4,1.5c-0.9,0.3-1.8,0.4-2.8,0.4
			c-0.7,0-1.4-0.1-2.1-0.3c-0.7-0.2-1.2-0.5-1.7-0.9c-0.5-0.4-0.9-0.9-1.1-1.5c-0.3-0.6-0.4-1.3-0.4-2.1c0-0.8,0.1-1.6,0.4-2.1
			c0.3-0.6,0.7-1,1.1-1.4c0.5-0.4,1-0.6,1.7-0.8c0.6-0.2,1.3-0.4,1.9-0.5c0.7-0.1,1.3-0.2,2-0.3c0.7-0.1,1.3-0.2,1.9-0.3
			c0.4-0.1,0.8-0.2,1-0.4c0.2-0.2,0.3-0.5,0.3-1c0-0.3-0.1-0.6-0.2-0.8c-0.2-0.2-0.4-0.4-0.6-0.5c-0.2-0.1-0.5-0.2-0.8-0.3
			c-0.3-0.1-0.6-0.1-0.8-0.1c-1.5,0-2.3,0.7-2.6,2H143.9z M148.4,21.2c0,0.6,0.2,1.1,0.6,1.4c0.4,0.3,0.9,0.4,1.5,0.4
			c1.2,0,2.1-0.4,2.5-1.1c0.5-0.7,0.7-1.9,0.6-3.5c-0.4,0.2-0.8,0.4-1.4,0.5c-0.6,0.1-1.2,0.2-1.7,0.4c-0.6,0.1-1.1,0.4-1.5,0.6
			C148.6,20.1,148.4,20.6,148.4,21.2z"/>
		<path fill="#ED1651" d="M169.7,27.1c-0.3,0.9-0.7,1.6-1.1,2.1c-0.4,0.5-0.9,0.9-1.4,1.2c-0.5,0.3-1.1,0.4-1.8,0.5
			c-0.7,0.1-1.4,0.1-2.3,0.1h-2.4v-4.2h1.8c0.6,0,1.1-0.2,1.5-0.5c0.4-0.3,0.6-0.7,0.6-1.3c0-0.2-0.1-0.5-0.2-0.9
			c-0.1-0.4-0.2-0.8-0.4-1.2c-0.1-0.4-0.3-0.8-0.4-1.2c-0.1-0.4-0.3-0.7-0.3-0.9l-4-10.9h5.4l2.9,10.2h0.1l2.9-10.2h5.2L169.7,27.1z
			"/>
	</g>
	<path fill="#4B345C" d="M41.5,5.4h5.1v4.8h3.2v3.3h-3.2v7.2c0,0.6,0.2,1,0.5,1.2c0.3,0.2,0.8,0.3,1.3,0.3c0.2,0,0.4,0,0.7,0
		c0.2,0,0.4,0,0.7,0v3.8c-0.5,0-0.9,0.1-1.4,0.1c-0.5,0-0.9,0.1-1.4,0.1c-1.1,0-2-0.1-2.7-0.3c-0.7-0.2-1.3-0.5-1.7-0.9
		c-0.4-0.4-0.7-1-0.9-1.7c-0.2-0.7-0.2-1.6-0.2-2.7V5.4z"/>
	<path fill="#4B345C" d="M52.2,10.2h5V13h0.1c0.4-1,1-1.8,1.8-2.3c0.8-0.5,1.8-0.8,2.9-0.8c0.2,0,0.4,0,0.6,0c0.2,0,0.4,0.1,0.6,0.1
		v4.7c-0.3-0.1-0.7-0.2-1-0.2c-0.3,0-0.6-0.1-1-0.1c-0.6,0-1.2,0.1-1.7,0.3c-0.5,0.2-0.9,0.5-1.2,0.8c-0.3,0.3-0.6,0.7-0.7,1.2
		c-0.2,0.5-0.2,0.9-0.2,1.4v7.8h-5.1V10.2z"/>
	<path fill="#4B345C" d="M64.2,15c0-1,0.3-1.9,0.7-2.6c0.4-0.7,1-1.2,1.7-1.6c0.7-0.4,1.5-0.7,2.3-0.9c0.9-0.2,1.7-0.2,2.6-0.2
		c0.9,0,1.8,0.1,2.7,0.2c0.9,0.1,1.6,0.4,2.3,0.8c0.7,0.4,1.2,0.9,1.6,1.6c0.4,0.7,0.6,1.6,0.6,2.7v6.9c0,0.7,0,1.3,0.1,2
		c0.1,0.7,0.2,1.4,0.5,2h-5.1c-0.1-0.2-0.2-0.5-0.2-0.7c0-0.2-0.1-0.5-0.1-0.8c-0.7,0.7-1.4,1.2-2.4,1.5c-0.9,0.3-1.8,0.4-2.8,0.4
		c-0.7,0-1.4-0.1-2.1-0.3c-0.7-0.2-1.2-0.5-1.7-0.9c-0.5-0.4-0.9-0.9-1.1-1.5c-0.3-0.6-0.4-1.3-0.4-2.1c0-0.9,0.1-1.6,0.4-2.1
		c0.3-0.6,0.7-1,1.1-1.4c0.5-0.4,1-0.6,1.7-0.9c0.6-0.2,1.3-0.4,1.9-0.5c0.7-0.1,1.3-0.2,2-0.3c0.7-0.1,1.3-0.2,1.9-0.3
		c0.4-0.1,0.8-0.2,1-0.4c0.2-0.2,0.3-0.5,0.3-1c0-0.3-0.1-0.6-0.2-0.8c-0.2-0.2-0.4-0.4-0.6-0.5c-0.2-0.1-0.5-0.2-0.8-0.3
		c-0.3-0.1-0.6-0.1-0.8-0.1c-1.5,0-2.3,0.7-2.6,2H64.2z M68.7,21.4c0,0.6,0.2,1.1,0.6,1.4c0.4,0.3,0.9,0.4,1.5,0.4
		c1.2,0,2.1-0.4,2.5-1.1c0.5-0.7,0.7-1.9,0.6-3.5c-0.4,0.2-0.8,0.4-1.4,0.5c-0.6,0.1-1.2,0.2-1.7,0.4c-0.6,0.1-1.1,0.4-1.5,0.6
		C68.9,20.3,68.7,20.8,68.7,21.4z"/>
	<rect x="101.7" y="4.3" fill="#4B345C" width="5.1" height="3.9"/>
	<rect x="101.7" y="10.2" fill="#4B345C" width="5.1" height="15.7"/>
	<path fill="#4B345C" d="M119.2,16c0-0.3-0.1-0.6-0.2-0.9c-0.1-0.3-0.3-0.5-0.6-0.7c-0.2-0.2-0.5-0.4-0.8-0.5
		c-0.3-0.1-0.6-0.2-0.9-0.2c-0.7,0-1.3,0.1-1.7,0.4c-0.4,0.3-0.8,0.6-1,1.1c-0.2,0.4-0.4,0.9-0.5,1.5c-0.1,0.6-0.1,1.1-0.1,1.7
		c0,0.5,0.1,1,0.2,1.5c0.1,0.5,0.3,0.9,0.5,1.3c0.2,0.4,0.6,0.7,0.9,0.9c0.4,0.2,0.8,0.4,1.4,0.4c0.9,0,1.6-0.2,2-0.7
		c0.5-0.5,0.8-1.1,0.9-2h5c-0.1,1.1-0.4,2-0.8,2.8c-0.4,0.8-1,1.5-1.7,2.1c-0.7,0.6-1.5,1-2.4,1.3c-0.9,0.3-1.9,0.4-2.9,0.4
		c-1.2,0-2.3-0.2-3.3-0.6c-1-0.4-1.9-0.9-2.6-1.6c-0.7-0.7-1.3-1.6-1.7-2.5c-0.4-1-0.6-2.1-0.6-3.3c0-1.2,0.2-2.4,0.6-3.5
		c0.4-1.1,0.9-2,1.6-2.7c0.7-0.8,1.6-1.3,2.6-1.8c1-0.4,2.1-0.6,3.4-0.6c1,0,1.9,0.1,2.8,0.4c0.9,0.3,1.7,0.6,2.4,1.2
		c0.7,0.5,1.3,1.2,1.7,1.9c0.4,0.8,0.7,1.7,0.8,2.7H119.2z"/>
	<rect fill="#FFD400" width="15.7" height="2.5"/>
	<rect x="17.2" fill="#FFD400" width="15.7" height="2.5"/>
	<rect y="2.5" fill="#ED1651" width="15.7" height="2.5"/>
	<rect x="17.2" y="2.5" fill="#ED1651" width="15.7" height="2.5"/>
	<rect x="0" y="10.5" fill="#00B2DD" width="7.9" height="2.5"/>
	<rect x="7.9" y="26.3" fill="#00B2DD" width="7.8" height="2.5"/>
	<polygon fill="#4B345C" points="0,8 0,10.5 7.9,10.5 7.9,13 7.9,23.8 7.9,26.3 15.7,26.3 15.7,23.8 15.7,5.1 0,5.1 	"/>
	<rect x="25" y="10.5" fill="#00B2DD" width="7.9" height="2.5"/>
	<rect x="17.2" y="26.3" fill="#00B2DD" width="7.8" height="2.5"/>
	<polygon fill="#4B345C" points="17.2,23.8 17.2,26.3 25,26.3 25,23.8 25,13 25,10.5 32.9,10.5 32.9,8 32.9,5.1 17.2,5.1 	"/>
	<path fill="#4B345C" d="M99.4,10.2h-2.6V9.5c0-0.7,0.2-1.1,0.5-1.3c0.3-0.2,0.8-0.3,1.4-0.3c0.2,0,0.4,0,0.7,0V4.3
		c-0.2,0-0.3,0-0.5,0c-0.4,0-0.8,0-1.2,0c-1.1,0-2,0.1-2.8,0.3c-0.8,0.2-1.4,0.5-1.8,1c-0.5,0.5-0.8,1.1-1,1.8
		c-0.2,0.8-0.3,1.7-0.3,2.8v15.7h5.1V13.5h2.6V10.2z"/>
	<path fill="#4B345C" d="M89.4,10.2h-2.6V9.5c0-0.7,0.2-1.1,0.5-1.3c0.3-0.2,0.8-0.3,1.4-0.3c0.2,0,0.4,0,0.7,0V4.3
		c-0.2,0-0.3,0-0.5,0c-0.4,0-0.8,0-1.2,0c-1.1,0-2,0.1-2.8,0.3c-0.8,0.2-1.4,0.5-1.8,1c-0.5,0.5-0.8,1.1-1,1.8
		c-0.2,0.8-0.3,1.7-0.3,2.8v15.7h5.1V13.5h2.6V10.2z"/>
</g>
</svg>
